<?xml version="1.0" standalone="no"?>
<!DOCTYPE svg PUBLIC "-//W3C//DTD SVG 20010904//EN"
 "http://www.w3.org/TR/2001/REC-SVG-20010904/DTD/svg10.dtd">
<svg version="1.0" xmlns="http://www.w3.org/2000/svg"
 width="225.000000pt" height="225.000000pt" viewBox="0 0 225.000000 225.000000"
 preserveAspectRatio="xMidYMid meet" fill="">

<g transform="translate(0.000000,225.000000) scale(0.100000,-0.100000)"
fill="#943dc7" stroke="none">
<path d="M777 1952 c-220 -115 -271 -187 -271 -387 0 -71 6 -136 17 -184 59
-247 249 -643 418 -871 169 -230 349 -326 513 -275 58 18 296 130 296 139 0 4
-290 577 -296 585 -2 2 -46 -18 -99 -44 -60 -29 -102 -44 -114 -40 -23 7 -86
87 -135 171 -43 75 -86 199 -86 251 l0 39 91 44 c50 25 93 49 97 54 7 12 -280
586 -293 586 -5 0 -68 -31 -138 -68z m158 -288 c89 -176 88 -154 5 -207 -47
-30 -70 -79 -70 -151 0 -194 171 -506 315 -573 63 -29 77 -29 143 2 30 14 55
25 57 25 1 0 39 -72 84 -160 l82 -161 -68 -31 c-37 -17 -84 -33 -105 -35 -48
-7 -131 31 -194 89 -217 199 -500 763 -531 1058 -8 81 12 165 51 207 29 33
119 91 141 92 6 1 46 -69 90 -155z"/>
</g>
</svg>
