<?xml version="1.0" standalone="no"?>
<!DOCTYPE svg PUBLIC "-//W3C//DTD SVG 20010904//EN"
 "http://www.w3.org/TR/2001/REC-SVG-20010904/DTD/svg10.dtd">
<svg version="1.0" xmlns="http://www.w3.org/2000/svg"
 width="148.000000pt" height="113.000000pt" viewBox="0 0 148.000000 113.000000"
 preserveAspectRatio="xMidYMid meet">

<g transform="translate(0.000000,113.000000) scale(0.100000,-0.100000)"
fill="blanchedalmond" stroke="none">
<path d="M590 884 c-161 -42 -304 -124 -435 -248 l-70 -66 72 -69 c174 -165
389 -262 583 -262 196 0 409 96 583 262 l72 69 -70 66 c-132 125 -279 208
-441 249 -77 19 -221 18 -294 -1z m255 -95 c86 -40 135 -121 135 -220 0 -110
-69 -203 -174 -234 -63 -19 -81 -19 -138 1 -59 20 -121 73 -147 127 -42 87
-21 215 47 280 71 68 188 88 277 46z m-335 -5 c0 -3 -11 -20 -24 -37 -73 -97
-73 -249 0 -356 13 -19 22 -37 20 -39 -12 -11 -220 119 -291 183 l-40 35 35
30 c60 52 152 116 220 153 67 36 80 41 80 31z m567 -45 c45 -25 144 -97 193
-139 l35 -30 -30 -26 c-82 -69 -147 -115 -219 -153 -43 -23 -80 -40 -83 -37
-3 3 5 18 17 33 76 96 78 263 4 360 -13 17 -24 34 -24 37 0 7 59 -18 107 -45z"/>
<path d="M687 694 c-3 -3 3 -15 14 -27 25 -27 24 -48 -2 -82 -18 -22 -28 -26
-55 -23 -28 3 -34 1 -34 -15 0 -37 31 -79 73 -98 53 -24 61 -24 114 2 52 25
73 61 73 125 0 41 -5 51 -39 85 -34 35 -44 39 -88 39 -27 0 -52 -3 -56 -6z"/>
</g>
</svg>
