<?xml version="1.0" standalone="no"?>
<!DOCTYPE svg PUBLIC "-//W3C//DTD SVG 20010904//EN"
 "http://www.w3.org/TR/2001/REC-SVG-20010904/DTD/svg10.dtd">
<svg version="1.0" xmlns="http://www.w3.org/2000/svg"
 width="222.000000pt" height="227.000000pt" viewBox="0 0 222.000000 227.000000"
 preserveAspectRatio="xMidYMid meet">

<g transform="translate(0.000000,227.000000) scale(0.100000,-0.100000)"
fill="#943dc7" stroke="none">
<path d="M1021 2239 c-58 -35 -935 -684 -964 -713 -20 -20 -22 -69 -4 -84 8
-7 142 -14 377 -18 355 -7 363 -7 355 12 -44 106 -47 120 -43 209 2 76 8 99
33 148 39 78 127 159 202 187 83 31 225 25 299 -12 74 -39 140 -108 177 -185
27 -58 31 -78 31 -153 1 -70 -4 -96 -26 -149 l-27 -63 352 4 c357 4 387 7 400
42 3 8 -3 26 -14 40 -20 26 -270 216 -666 509 -331 244 -335 247 -396 247 -35
0 -63 -7 -86 -21z"/>
<path d="M1087 1923 c-4 -3 -7 -19 -7 -35 0 -15 -5 -28 -11 -28 -29 0 -79 -35
-93 -65 -36 -76 -9 -138 81 -180 73 -34 93 -52 93 -81 0 -37 -41 -57 -103 -52
-28 3 -58 7 -66 9 -14 4 -40 -56 -29 -67 3 -2 33 -10 66 -16 58 -11 61 -13 64
-42 2 -23 9 -32 26 -34 19 -3 22 1 22 31 0 30 6 38 49 65 56 34 79 83 67 145
-8 42 -29 62 -115 107 -69 37 -86 64 -59 97 10 12 26 14 79 10 63 -5 67 -4 73
16 10 40 6 45 -41 53 -45 8 -48 11 -51 42 -2 23 -8 32 -21 32 -10 0 -21 -3
-24 -7z"/>
<path d="M248 1354 c-53 -28 -73 -105 -43 -164 8 -16 32 -36 55 -46 l40 -18 0
-291 0 -291 -36 -13 c-64 -23 -93 -106 -59 -171 32 -63 -8 -60 914 -60 l840 0
35 34 c32 30 36 39 36 83 0 60 -24 96 -75 114 l-35 13 0 291 0 291 35 13 c51
18 75 54 75 112 0 40 -5 55 -29 81 l-29 33 -293 3 -292 3 -26 -24 c-133 -122
-342 -125 -491 -7 l-38 30 -278 0 c-227 -1 -284 -4 -306 -16z m512 -519 l0
-295 -105 0 -105 0 0 295 0 295 105 0 105 0 0 -295z m460 0 l0 -295 -110 0
-110 0 0 295 0 295 110 0 110 0 0 -295z m458 3 l-3 -293 -107 -3 -108 -3 0
296 0 295 110 0 110 0 -2 -292z"/>
<path d="M145 243 c-62 -4 -93 -19 -111 -55 -30 -59 -3 -147 52 -168 17 -7
389 -9 1039 -8 l1013 3 26 24 c39 37 52 88 33 133 -9 20 -28 45 -43 55 -27 17
-76 18 -994 19 -531 0 -987 -1 -1015 -3z"/>
</g>
</svg>
