<?xml version="1.0" standalone="no"?>
<!DOCTYPE svg PUBLIC "-//W3C//DTD SVG 20010904//EN"
 "http://www.w3.org/TR/2001/REC-SVG-20010904/DTD/svg10.dtd">
<svg version="1.0" xmlns="http://www.w3.org/2000/svg"
 width="148.000000pt" height="148.000000pt" viewBox="0 0 148.000000 148.000000"
 preserveAspectRatio="xMidYMid meet">

<g transform="translate(0.000000,148.000000) scale(0.100000,-0.100000)"
fill="#943dc7" stroke="none">
<path d="M685 1265 c-16 -15 -25 -36 -25 -57 0 -30 -5 -35 -62 -63 -106 -51
-140 -134 -157 -377 -12 -157 -28 -208 -110 -335 -28 -44 -51 -85 -51 -91 0
-26 43 -35 145 -28 l102 7 12 -45 c14 -58 49 -86 108 -86 38 0 50 5 79 34 25
25 34 43 34 67 l0 32 198 -6 c109 -3 208 -4 220 0 32 8 27 35 -18 101 -84 124
-120 230 -120 361 -1 84 -23 208 -46 257 -26 54 -82 107 -132 123 -38 13 -42
17 -42 48 0 44 -37 83 -80 83 -19 0 -40 -9 -55 -25z m86 -15 c12 -7 19 -21 19
-40 0 -29 -1 -30 -50 -30 -46 0 -50 2 -50 24 0 45 40 68 81 46z m56 -112 c62
-15 124 -76 151 -148 13 -36 24 -104 31 -200 15 -189 36 -255 122 -382 22 -31
39 -58 39 -60 0 -2 -193 -3 -430 -3 -237 0 -430 1 -430 3 0 1 17 28 39 60 89
131 107 186 121 364 13 164 29 230 70 287 58 79 168 110 287 79z m-97 -846 c0
-29 -29 -63 -62 -75 -29 -10 -78 13 -94 45 -26 50 -15 58 76 58 l80 0 0 -28z"/>
</g>
</svg>
