<?xml version="1.0" standalone="no"?>
<!DOCTYPE svg PUBLIC "-//W3C//DTD SVG 20010904//EN"
 "http://www.w3.org/TR/2001/REC-SVG-20010904/DTD/svg10.dtd">
<svg version="1.0" xmlns="http://www.w3.org/2000/svg"
 width="296.000000pt" height="171.000000pt" viewBox="0 0 296.000000 171.000000"
 preserveAspectRatio="xMidYMid meet">

<g transform="translate(0.000000,171.000000) scale(0.100000,-0.100000)"
fill="#943dc7" stroke="none">
<path d="M1330 1605 c-278 -62 -485 -251 -570 -520 -15 -47 -24 -107 -27 -181
-7 -146 12 -235 79 -373 88 -178 240 -311 433 -377 66 -22 103 -28 205 -32
156 -5 227 10 369 79 204 99 345 283 397 516 33 149 7 347 -63 488 -92 183
-279 336 -478 390 -85 23 -264 28 -345 10z m89 -51 c28 -6 31 -10 31 -44 l0
-38 -113 -60 c-106 -55 -119 -60 -203 -66 -49 -4 -98 -10 -109 -12 -11 -2 -27
0 -35 5 -43 28 167 166 310 205 64 17 77 18 119 10z m287 -24 c77 -27 169 -80
227 -130 76 -67 65 -73 -94 -55 -109 12 -119 16 -221 70 l-108 56 0 39 c0 32
4 39 23 43 36 8 111 -2 173 -23z m-483 -242 c3 -7 21 -47 40 -89 l35 -76 -69
-113 c-37 -62 -72 -117 -76 -121 -4 -4 -50 -10 -101 -14 l-92 -7 -34 73 c-54
119 -55 106 19 228 l65 110 58 6 c31 3 66 7 77 9 47 7 73 5 78 -6z m679 -4
l47 -6 66 -109 c74 -121 73 -108 18 -228 l-33 -74 -68 6 c-37 4 -79 7 -94 7
-23 0 -36 15 -99 117 -40 64 -72 121 -72 127 0 6 17 49 38 94 l39 84 55 -6
c31 -4 77 -9 103 -12z m-279 -203 c8 -9 42 -62 76 -118 l62 -102 -68 -120 -68
-121 -145 3 -145 2 -68 118 -68 118 62 102 c34 56 68 109 76 118 11 13 37 16
143 16 106 0 132 -3 143 -16z m-750 -148 c44 -105 46 -111 50 -234 5 -125 4
-127 -18 -137 -36 -17 -77 36 -101 129 -30 119 -24 349 10 349 8 0 34 -48 59
-107z m1294 70 c15 -70 9 -234 -11 -312 -24 -93 -65 -146 -101 -129 -22 10
-23 12 -18 137 4 123 6 129 51 234 25 59 51 107 58 107 7 0 17 -17 21 -37z
m-485 -512 l56 -79 -60 -76 -59 -76 -139 0 -139 0 -34 43 c-18 23 -45 58 -59
77 l-26 35 56 78 57 77 145 0 146 0 56 -79z m-610 -37 c77 -50 109 -79 157
-140 86 -108 81 -131 -18 -90 -143 58 -301 202 -301 274 0 12 43 31 55 24 6
-3 54 -34 107 -68z m978 44 c0 -66 -153 -212 -283 -268 -74 -32 -85 -33 -92
-11 -4 15 10 40 55 97 50 63 80 89 168 144 92 59 109 66 129 57 13 -5 23 -14
23 -19z"/>
</g>
</svg>
