<?xml version="1.0" standalone="no"?>
<!DOCTYPE svg PUBLIC "-//W3C//DTD SVG 20010904//EN"
 "http://www.w3.org/TR/2001/REC-SVG-20010904/DTD/svg10.dtd">
<svg version="1.0" xmlns="http://www.w3.org/2000/svg"
 width="200.000000pt" height="200.000000pt" viewBox="0 0 200.000000 200.000000"
 preserveAspectRatio="xMidYMid meet">

<g transform="translate(0.000000,200.000000) scale(0.100000,-0.100000)"
fill="#943dc7" stroke="none">
<path d="M321 1477 c-13 -6 -34 -25 -45 -40 -21 -28 -21 -38 -21 -437 0 -399
0 -409 21 -437 40 -54 20 -53 724 -53 704 0 684 -1 724 53 21 28 21 38 21 437
0 399 0 409 -21 437 -40 54 -20 53 -724 53 -500 0 -661 -3 -679 -13z m1337
-63 c18 -12 22 -25 22 -65 l0 -49 -680 0 -680 0 0 49 c0 86 -45 81 680 81 559
0 638 -2 658 -16z m22 -563 c0 -247 0 -250 -22 -265 -20 -14 -99 -16 -658 -16
-559 0 -638 2 -658 16 -22 15 -22 18 -22 265 l0 249 680 0 680 0 0 -249z"/>
<path d="M454 940 c-31 -12 -72 -66 -80 -105 -13 -73 59 -155 137 -155 45 0
46 3 19 37 -44 57 -44 158 1 199 10 9 19 21 19 26 0 10 -68 9 -96 -2z"/>
<path d="M594 933 c-37 -18 -74 -78 -74 -119 0 -64 72 -134 138 -134 97 0 164
112 119 200 -31 61 -117 86 -183 53z"/>
<path d="M900 831 c-18 -35 12 -51 91 -51 78 0 109 11 109 39 0 26 -19 31
-110 31 -68 0 -81 -3 -90 -19z"/>
<path d="M1159 834 c-9 -11 -10 -20 -2 -32 15 -25 181 -25 196 0 8 12 7 21 -2
32 -19 23 -173 23 -192 0z"/>
<path d="M1423 843 c-16 -6 -17 -35 -1 -51 7 -7 44 -12 95 -12 73 0 84 2 93
21 20 37 -3 49 -94 48 -44 0 -87 -3 -93 -6z"/>
</g>
</svg>
