<?xml version="1.0" standalone="no"?>
<!DOCTYPE svg PUBLIC "-//W3C//DTD SVG 20010904//EN"
 "http://www.w3.org/TR/2001/REC-SVG-20010904/DTD/svg10.dtd">
<svg version="1.0" xmlns="http://www.w3.org/2000/svg"
 width="225.000000pt" height="225.000000pt" viewBox="0 0 225.000000 225.000000"
 preserveAspectRatio="xMidYMid meet">
<metadata>
Created by potrace 1.16, written by Peter Selinger 2001-2019
</metadata>
<g transform="translate(0.000000,225.000000) scale(0.100000,-0.100000)"
fill="##943dc7" stroke="none">
<path d="M715 1931 c-11 -5 -29 -19 -40 -31 -20 -22 -20 -38 -23 -739 -2 -394
0 -736 3 -760 4 -26 16 -53 30 -67 l24 -24 419 0 419 0 24 26 24 26 3 746 c3
678 1 750 -13 778 -9 18 -28 37 -41 43 -29 13 -797 15 -829 2z m830 -811 l0
-595 -417 -3 -418 -2 0 600 0 600 418 -2 417 -3 0 -595z"/>
<path d="M1047 1469 c-100 -24 -206 -112 -249 -206 -17 -37 -22 -69 -22 -138
-1 -78 3 -98 26 -147 70 -151 221 -232 382 -207 263 43 385 357 221 572 -78
103 -230 156 -358 126z m20 -201 c35 -34 63 -66 63 -70 0 -21 -33 -3 -69 38
l-41 47 0 -177 c0 -150 -2 -176 -15 -176 -13 0 -15 26 -15 177 l0 177 -49 -48
c-27 -27 -54 -45 -60 -41 -7 4 13 31 51 70 35 35 65 64 68 65 2 0 33 -28 67
-62z m193 -128 c0 -93 4 -170 8 -170 4 0 28 20 52 45 28 29 48 41 54 35 6 -6
-15 -33 -58 -75 l-68 -66 -66 65 c-45 45 -63 69 -56 76 7 7 24 -4 54 -35 24
-25 48 -45 52 -45 4 0 8 77 8 170 0 107 4 170 10 170 6 0 10 -63 10 -170z"/>
</g>
</svg>
