<?xml version="1.0" standalone="no"?>
<!DOCTYPE svg PUBLIC "-//W3C//DTD SVG 20010904//EN"
 "http://www.w3.org/TR/2001/REC-SVG-20010904/DTD/svg10.dtd">
<svg version="1.0" xmlns="http://www.w3.org/2000/svg"
 width="225.000000pt" height="139.000000pt" viewBox="0 0 225.000000 139.000000"
 preserveAspectRatio="xMidYMid meet">
<metadata>
Created by potrace 1.16, written by Peter Selinger 2001-2019
</metadata>
<g transform="translate(0.000000,139.000000) scale(0.100000,-0.100000)"
fill="#943dc7" stroke="none">
<path d="M1066 1332 c-2 -1 -16 -5 -32 -8 -46 -8 -176 -63 -219 -92 -112 -76
-171 -143 -235 -269 -48 -92 -69 -160 -72 -227 -1 -40 3 -52 21 -68 45 -35 97
-11 106 50 18 119 40 179 94 257 81 115 201 195 346 230 137 34 305 -5 430
-100 46 -34 90 -77 108 -105 l16 -26 -73 10 c-40 5 -85 6 -100 2 -46 -11 -58
-84 -18 -105 29 -15 328 -46 354 -36 25 10 37 44 44 122 3 43 9 115 13 161 9
104 -1 124 -61 120 -23 -1 -43 -8 -48 -17 -6 -13 -15 -79 -19 -154 -1 -4 -16
9 -33 30 -48 55 -48 55 -108 99 -81 59 -203 110 -292 124 -68 10 -213 12 -222
2z"/>
<path d="M1156 958 c-9 -5 -14 -13 -11 -18 3 -5 -15 -18 -39 -29 -69 -30 -87
-52 -95 -113 -10 -78 8 -112 81 -146 57 -27 58 -28 58 -69 0 -24 -2 -43 -5
-43 -10 0 -60 33 -72 48 -10 12 -18 8 -47 -24 -20 -22 -36 -44 -36 -50 0 -16
70 -60 118 -75 36 -10 42 -16 42 -39 0 -24 3 -26 43 -25 39 1 42 3 39 27 -2
23 2 27 35 33 69 12 113 67 113 143 0 41 -5 55 -32 85 -18 21 -51 43 -73 51
-37 12 -40 16 -43 54 -2 23 0 42 4 42 4 0 22 -9 40 -21 l34 -21 20 24 c11 12
19 29 20 36 0 6 5 12 10 12 6 0 10 6 10 14 0 15 -93 66 -121 66 -10 0 -16 7
-15 17 1 20 -53 35 -78 21z"/>
<path d="M1741 655 c-5 -11 -18 -57 -27 -102 -10 -46 -22 -83 -26 -83 -4 0 -8
-6 -8 -13 0 -34 -50 -109 -116 -174 -40 -40 -78 -73 -85 -73 -6 0 -22 -9 -35
-19 -91 -72 -352 -89 -456 -31 -10 6 -23 10 -29 10 -19 0 -114 67 -161 113
-42 40 -91 106 -70 93 15 -9 170 -18 191 -11 40 13 47 80 11 104 -23 15 -26
16 -135 25 -38 3 -104 8 -145 12 -65 5 -77 4 -91 -12 -18 -21 -30 -79 -34
-169 -1 -33 -5 -89 -9 -124 -9 -75 7 -101 59 -101 38 0 55 17 62 62 3 18 6 38
7 43 6 36 20 33 68 -16 226 -228 620 -253 877 -55 73 57 181 184 181 214 0 5
7 15 15 22 8 7 15 20 15 30 0 9 6 30 14 46 17 34 25 68 33 145 5 52 4 58 -19
73 -32 21 -74 17 -87 -9z"/>
</g>
</svg>
