<?xml version="1.0" standalone="no"?>
<!DOCTYPE svg PUBLIC "-//W3C//DTD SVG 20010904//EN"
 "http://www.w3.org/TR/2001/REC-SVG-20010904/DTD/svg10.dtd">
<svg version="1.0" xmlns="http://www.w3.org/2000/svg"
 width="260.000000pt" height="148.000000pt" viewBox="0 0 260.000000 148.000000"
 preserveAspectRatio="xMidYMid meet">
<metadata>
Created by potrace 1.16, written by Peter Selinger 2001-2019
</metadata>
<g transform="translate(0.000000,148.000000) scale(0.100000,-0.100000)"
fill="#943dc7" stroke="none">
<path d="M1165 1430 c-189 -49 -343 -208 -383 -396 -11 -49 -66 -124 -91 -124
-6 0 -29 -16 -50 -35 -118 -107 -97 -373 34 -444 17 -9 42 -29 57 -44 39 -39
88 -40 128 -1 l25 24 3 228 c2 125 0 242 -3 261 -3 18 -18 44 -31 56 l-25 24
15 62 c32 122 127 239 242 297 85 42 153 56 250 49 69 -4 98 -11 159 -40 130
-62 227 -176 261 -306 l15 -62 -25 -24 c-13 -12 -28 -38 -31 -56 -3 -19 -5
-136 -3 -261 l3 -227 28 -29 c25 -26 27 -35 21 -66 -16 -86 -93 -136 -211
-136 -72 0 -79 2 -99 28 -22 27 -24 27 -138 27 -131 0 -152 -10 -163 -78 -5
-31 -1 -40 25 -67 30 -30 32 -30 137 -30 105 0 107 0 137 30 27 28 35 30 103
30 149 0 234 59 266 185 11 44 64 115 85 115 4 0 23 12 42 26 111 85 118 332
11 428 -21 20 -44 36 -50 36 -6 0 -26 16 -45 36 -24 26 -38 55 -50 103 -22 88
-57 152 -124 225 -105 113 -216 166 -365 171 -64 3 -110 -1 -160 -15z m-345
-529 c6 -12 10 -107 10 -240 0 -188 -2 -222 -16 -236 -12 -12 -19 -13 -30 -4
-19 16 -21 485 -1 492 21 9 26 7 37 -12z m994 13 c14 -5 16 -36 16 -244 0
-191 -3 -240 -14 -249 -11 -9 -18 -8 -30 4 -14 14 -16 48 -16 236 0 133 4 228
10 240 12 21 12 21 34 13z m-1104 -251 l-1 -188 -34 37 c-41 44 -59 105 -52
179 7 75 49 154 85 159 1 0 2 -84 2 -187z m1241 125 c26 -52 35 -139 20 -196
-7 -24 -28 -60 -46 -80 l-34 -37 -1 188 c0 185 0 188 20 177 11 -6 29 -29 41
-52z"/>
</g>
</svg>
