<?xml version="1.0" standalone="no"?>
<!DOCTYPE svg PUBLIC "-//W3C//DTD SVG 20010904//EN"
 "http://www.w3.org/TR/2001/REC-SVG-20010904/DTD/svg10.dtd">
<svg version="1.0" xmlns="http://www.w3.org/2000/svg"
 width="225.000000pt" height="225.000000pt" viewBox="0 0 225.000000 225.000000"
 preserveAspectRatio="xMidYMid meet">

<g transform="translate(0.000000,225.000000) scale(0.100000,-0.100000)"
fill="#943dc7" stroke="none">
<path d="M590 2190 c-15 -15 -20 -33 -20 -70 l0 -50 -85 0 c-96 0 -134 -14
-153 -55 -8 -17 -12 -84 -12 -191 0 -172 5 -199 47 -237 14 -12 331 -137 349
-137 1 0 21 -35 45 -77 44 -81 132 -179 187 -207 17 -9 55 -22 84 -30 l53 -13
3 -72 3 -71 -86 0 c-116 0 -125 -9 -125 -125 l0 -85 -54 0 c-44 0 -61 -5 -83
-24 l-28 -24 -5 -204 -5 -203 -45 -3 c-29 -2 -53 -11 -67 -24 -21 -19 -23 -31
-23 -114 0 -146 -49 -134 557 -134 l504 0 24 25 c23 22 25 32 25 108 0 108
-17 134 -88 139 l-47 3 -5 203 -5 204 -28 24 c-22 19 -39 24 -83 24 l-54 0 0
85 c0 116 -9 125 -125 125 l-86 0 3 71 3 72 55 14 c108 27 199 107 272 240
l39 71 82 30 c45 17 121 44 168 62 55 19 97 42 115 61 l29 30 3 176 c2 121 0
185 -9 205 -18 44 -56 58 -154 58 l-85 0 0 50 c0 37 -5 55 -20 70 -19 19 -33
20 -535 20 -502 0 -516 -1 -535 -20z m1023 -47 c6 -11 -20 -202 -43 -319 -32
-161 -66 -271 -120 -381 -60 -121 -123 -192 -206 -230 -49 -22 -66 -25 -133
-21 -92 6 -145 30 -211 98 -85 87 -172 290 -215 500 -20 99 -53 349 -47 355 8
8 970 6 975 -2z m-1008 -268 c22 -125 55 -266 75 -320 5 -14 8 -25 7 -25 -20
1 -275 103 -286 115 -13 13 -17 45 -19 171 -4 198 -5 196 116 192 l85 -3 22
-130z m1249 116 c15 -17 17 -39 14 -175 -2 -126 -6 -158 -19 -171 -11 -11
-265 -113 -286 -115 0 0 6 21 14 48 24 79 61 243 73 327 6 44 13 86 16 93 2 8
29 12 87 12 70 0 87 -3 101 -19z m-554 -1146 l0 -75 -175 0 -175 0 0 75 0 75
175 0 175 0 0 -75z m161 -145 c18 -10 19 -23 19 -200 l0 -190 -355 0 -355 0 0
190 c0 169 2 190 18 199 23 14 647 15 673 1z m154 -525 l0 -70 -490 0 -490 0
-3 59 c-2 32 -1 65 2 72 5 12 87 14 493 12 l488 -3 0 -70z"/>
</g>
</svg>
