<?xml version="1.0" standalone="no"?>
<!DOCTYPE svg PUBLIC "-//W3C//DTD SVG 20010904//EN"
 "http://www.w3.org/TR/2001/REC-SVG-20010904/DTD/svg10.dtd">
<svg version="1.0" xmlns="http://www.w3.org/2000/svg"
 width="148.000000pt" height="148.000000pt" viewBox="0 0 148.000000 148.000000"
 preserveAspectRatio="xMidYMid meet">

<g transform="translate(0.000000,148.000000) scale(0.100000,-0.100000)"
fill="#943dc7" stroke="none">
<path d="M221 1322 c-67 -33 -76 -57 -79 -212 -4 -150 3 -180 41 -180 42 0 47
16 47 160 0 92 4 140 12 148 8 8 56 12 148 12 144 0 160 5 160 47 0 35 -30 43
-167 43 -102 0 -135 -4 -162 -18z"/>
<path d="M896 1324 c-9 -8 -16 -22 -16 -29 0 -7 7 -21 16 -29 13 -13 43 -16
173 -16 109 0 161 -4 169 -12 8 -8 12 -56 12 -148 0 -144 5 -160 47 -160 38 0
45 30 41 180 -3 155 -12 179 -79 212 -48 25 -339 27 -363 2z"/>
<path d="M104 766 c-3 -8 -4 -25 -2 -38 l3 -23 635 0 635 0 0 35 0 35 -633 3
c-542 2 -633 0 -638 -12z"/>
<path d="M150 529 c-7 -13 -10 -71 -8 -159 3 -121 6 -142 24 -167 38 -52 75
-63 217 -63 137 0 167 8 167 43 0 42 -16 47 -160 47 -92 0 -140 4 -148 12 -8
8 -12 56 -12 148 0 92 -4 140 -12 148 -19 19 -56 14 -68 -9z"/>
<path d="M1262 538 c-8 -8 -12 -56 -12 -148 0 -92 -4 -140 -12 -148 -8 -8 -60
-12 -169 -12 -130 0 -160 -3 -173 -16 -20 -20 -20 -38 0 -58 24 -25 315 -23
363 2 67 33 76 57 79 212 2 88 -1 146 -8 159 -12 23 -49 28 -68 9z"/>
</g>
</svg>
