<?xml version="1.0" standalone="no"?>
<!DOCTYPE svg PUBLIC "-//W3C//DTD SVG 20010904//EN"
 "http://www.w3.org/TR/2001/REC-SVG-20010904/DTD/svg10.dtd">
<svg version="1.0" xmlns="http://www.w3.org/2000/svg"
 width="225.000000pt" height="225.000000pt" viewBox="0 0 225.000000 225.000000"
 preserveAspectRatio="xMidYMid meet">

<g transform="translate(0.000000,225.000000) scale(0.100000,-0.100000)"
fill="#943dc7" stroke="none">
<path d="M976 1685 c-98 -27 -178 -75 -256 -154 -119 -120 -170 -239 -170
-399 0 -172 50 -294 169 -413 118 -117 240 -169 401 -169 172 0 289 49 410
170 121 120 170 238 170 409 0 163 -50 281 -171 404 -83 84 -172 134 -277 156
-70 15 -215 13 -276 -4z m294 -52 c163 -44 309 -187 361 -353 27 -89 27 -222
0 -311 -50 -160 -190 -300 -350 -349 -79 -25 -224 -27 -302 -4 -125 36 -251
136 -314 249 -95 170 -90 382 13 541 132 202 361 290 592 227z"/>
<path d="M925 1403 c-59 -59 -36 -211 33 -221 81 -12 121 147 56 219 -21 23
-67 25 -89 2z"/>
<path d="M1231 1394 c-63 -81 -7 -242 74 -210 43 16 69 118 46 179 -23 61 -84
77 -120 31z"/>
<path d="M760 1017 c0 -40 72 -147 125 -187 70 -53 102 -67 179 -81 158 -27
312 48 395 193 36 62 40 98 12 98 -14 0 -27 -16 -44 -54 -32 -69 -94 -131
-166 -165 -46 -21 -70 -26 -136 -26 -71 0 -88 4 -147 33 -74 36 -124 89 -158
165 -15 33 -27 47 -40 47 -14 0 -20 -7 -20 -23z"/>
</g>
</svg>
