<?xml version="1.0" standalone="no"?>
<!DOCTYPE svg PUBLIC "-//W3C//DTD SVG 20010904//EN"
 "http://www.w3.org/TR/2001/REC-SVG-20010904/DTD/svg10.dtd">
<svg version="1.0" xmlns="http://www.w3.org/2000/svg"
 width="225.000000pt" height="225.000000pt" viewBox="0 0 225.000000 225.000000"
 preserveAspectRatio="xMidYMid meet">

<g transform="translate(0.000000,225.000000) scale(0.100000,-0.100000)"
fill="#943dc7" stroke="none">
<path d="M1550 1980 c-18 -18 -20 -33 -20 -135 l0 -115 -588 0 c-558 0 -590
-1 -605 -18 -14 -16 -17 -44 -17 -184 0 -147 2 -167 18 -181 17 -15 73 -17
605 -17 l587 0 0 -115 c0 -102 2 -117 20 -135 45 -45 60 -35 298 203 171 171
222 228 222 247 0 19 -51 76 -223 248 -237 237 -252 247 -297 202z m240 -335
l115 -115 -115 -115 c-63 -63 -117 -115 -121 -115 -3 0 -7 28 -8 62 -4 107 53
98 -623 98 l-588 0 0 70 0 70 587 0 c677 0 623 -8 623 97 0 34 3 63 8 63 4 0
59 -52 122 -115z"/>
<path d="M402 967 c-168 -168 -222 -228 -222 -247 0 -18 54 -78 222 -247 238
-239 252 -249 298 -203 18 18 20 33 20 135 l0 115 588 0 c558 0 590 1 605 18
14 16 17 44 17 184 0 147 -2 167 -18 181 -17 15 -73 17 -605 17 l-587 0 0 115
c0 102 -2 117 -20 135 -45 45 -60 35 -298 -203z m186 -78 c0 -108 -55 -99 624
-99 l588 0 0 -70 0 -70 -587 0 c-677 0 -623 8 -623 -97 0 -34 -3 -63 -8 -63
-4 0 -59 52 -122 115 l-115 115 115 115 c63 63 118 115 121 115 3 0 6 -27 7
-61z"/>
</g>
</svg>
