<?xml version="1.0" standalone="no"?>
<!DOCTYPE svg PUBLIC "-//W3C//DTD SVG 20010904//EN"
 "http://www.w3.org/TR/2001/REC-SVG-20010904/DTD/svg10.dtd">
<svg version="1.0" xmlns="http://www.w3.org/2000/svg"
 width="250.000000pt" height="250.000000pt" viewBox="0 0 250.000000 250.000000"
 preserveAspectRatio="xMidYMid meet">

<g transform="translate(0.000000,250.000000) scale(0.100000,-0.100000)"
fill="#943dc7" stroke="none">
<path d="M395 1956 c-39 -17 -69 -52 -84 -95 -14 -43 -16 -920 -1 -970 5 -19
20 -45 32 -59 49 -52 50 -52 448 -52 l371 -1 -3 -67 -3 -67 -251 -5 c-197 -4
-255 -8 -268 -19 -19 -16 -46 -63 -46 -81 0 -7 206 -10 660 -10 l660 0 0 21
c0 31 -62 89 -97 89 -15 0 -126 2 -246 3 l-219 2 -1 65 -1 65 365 3 c239 1
373 6 392 13 38 16 85 72 92 111 3 18 5 243 3 499 l-3 466 -27 35 c-55 72 -3
68 -920 68 -663 -1 -829 -3 -853 -14z m1654 -576 l0 -460 -800 0 -799 0 0 460
0 460 800 0 799 0 0 -460z"/>
<path d="M720 1595 l0 -64 83 -3 82 -3 0 -208 0 -208 70 3 70 3 3 208 2 207
80 0 80 0 0 65 0 65 -235 0 -235 0 0 -65z"/>
<path d="M1247 1653 c-4 -7 82 -248 167 -471 l28 -73 56 3 56 3 98 260 c54
143 98 266 98 273 0 10 -18 12 -71 10 l-72 -3 -51 -142 c-29 -78 -54 -144 -57
-147 -3 -3 -29 62 -59 144 l-54 150 -67 0 c-38 0 -70 -3 -72 -7z"/>
</g>
</svg>
