<?xml version="1.0" standalone="no"?>
<!DOCTYPE svg PUBLIC "-//W3C//DTD SVG 20010904//EN"
 "http://www.w3.org/TR/2001/REC-SVG-20010904/DTD/svg10.dtd">
<svg version="1.0" xmlns="http://www.w3.org/2000/svg"
 width="216.000000pt" height="233.000000pt" viewBox="0 0 216.000000 233.000000"
 preserveAspectRatio="xMidYMid meet">

<g transform="translate(0.000000,233.000000) scale(0.100000,-0.100000)"
fill="#943dc7" stroke="none">
<path d="M239 2012 l-35 -16 2 -183 c2 -126 6 -189 14 -199 10 -11 45 -14 171
-14 l159 0 0 65 0 65 -49 0 c-81 0 -127 56 -100 122 24 59 11 58 672 58 416 0
614 -3 636 -11 33 -12 61 -52 61 -89 0 -12 -13 -35 -29 -51 -25 -24 -37 -29
-80 -29 l-51 0 0 -65 0 -65 159 0 c145 0 161 2 173 19 14 20 19 376 5 399 -7
9 -186 12 -840 11 -738 -1 -836 -3 -868 -17z"/>
<path d="M657 1809 c-47 -27 -47 -30 -47 -663 0 -440 3 -602 12 -621 24 -54
34 -55 458 -55 427 0 436 1 459 57 8 21 11 191 9 636 l-3 609 -28 24 -28 24
-407 0 c-258 0 -413 -4 -425 -11z m467 -215 c8 -26 20 -36 62 -54 64 -26 128
-92 145 -149 11 -38 10 -44 -8 -69 -14 -19 -31 -28 -57 -30 -46 -4 -59 6 -75
60 -17 55 -46 86 -89 94 -77 15 -146 -62 -123 -137 16 -52 47 -73 163 -110
157 -49 212 -111 211 -240 -1 -102 -67 -185 -169 -215 -44 -13 -52 -19 -58
-44 -7 -38 -48 -51 -76 -25 -11 10 -20 26 -20 35 0 12 -16 23 -52 35 -69 22
-104 48 -139 103 -46 73 -37 134 24 155 32 12 66 -11 91 -62 45 -88 113 -119
187 -85 45 20 69 57 69 104 0 48 -42 82 -130 109 -181 55 -249 125 -250 255 0
103 57 184 157 222 24 9 43 23 43 31 0 34 21 54 53 51 26 -2 34 -9 41 -34z"/>
</g>
</svg>
